<?xml version="1.0" encoding="UTF-8" standalone="no"?>
<svg
   xmlns:dc="http://purl.org/dc/elements/1.1/"
   xmlns:cc="http://creativecommons.org/ns#"
   xmlns:rdf="http://www.w3.org/1999/02/22-rdf-syntax-ns#"
   xmlns:svg="http://www.w3.org/2000/svg"
   xmlns="http://www.w3.org/2000/svg"
   id="svg8"
   version="1.1"
   viewBox="0 0 115.65466 42.841331"
   height="42.841331mm"
   width="115.65466mm">
  <defs
     id="defs2" />
  <metadata
     id="metadata5">
    <rdf:RDF>
      <cc:Work
         rdf:about="">
        <dc:format>image/svg+xml</dc:format>
        <dc:type
           rdf:resource="http://purl.org/dc/dcmitype/StillImage" />
        <dc:title></dc:title>
      </cc:Work>
    </rdf:RDF>
  </metadata>
  <g
     transform="translate(-45.73814,-134.21625)"
     id="layer1">
    <path
       id="path21"
       d="m 85.773141,175.48867 c 0,-0.12708 0.780519,-4.14014 0.81134,-4.17153 0.01869,-0.019 0.253353,-0.0362 0.521483,-0.0382 0.943488,-0.007 1.291843,0.39619 1.291843,1.49481 0,1.19872 -0.504597,2.2832 -1.211723,2.60424 -0.33859,0.15372 -1.412943,0.23785 -1.412943,0.11064 z m 1.370606,-0.55116 c 0.310814,-0.21966 0.636922,-0.92497 0.757534,-1.63843 0.115697,-0.68439 0.0576,-1.11702 -0.192742,-1.43528 -0.14276,-0.18149 -0.235517,-0.21984 -0.481565,-0.19909 l -0.304747,0.0257 -0.316208,1.651 c -0.173915,0.90805 -0.29914,1.70166 -0.27828,1.76358 0.04941,0.14664 0.503349,0.0535 0.816008,-0.16748 z m 1.642586,0.34474 c -0.547836,-0.65107 -0.05839,-2.41099 0.766348,-2.75559 0.708711,-0.29612 1.208371,0.34633 0.833361,1.07152 -0.155891,0.30146 -0.499196,0.49005 -1.022675,0.5618 l -0.392025,0.0537 0.04149,0.36813 c 0.06105,0.54165 0.18543,0.65129 0.673323,0.5935 0.354591,-0.042 0.404983,-0.0285 0.404983,0.10833 0,0.19731 -0.161326,0.25906 -0.676732,0.25906 -0.352641,0 -0.439033,-0.0358 -0.628076,-0.26049 z m 1.050808,-1.67579 c 0.293291,-0.21661 0.304195,-0.7176 0.01651,-0.75838 -0.301318,-0.0427 -0.555445,0.24191 -0.735126,0.82335 -0.05958,0.1928 -0.04839,0.20021 0.222107,0.14719 0.156666,-0.0307 0.380096,-0.12618 0.496513,-0.21216 z m 0.610961,1.86472 c -0.0598,-0.0379 -0.0858,-0.12864 -0.0578,-0.20155 0.0387,-0.10089 0.13094,-0.12185 0.38577,-0.0877 0.24897,0.0334 0.37785,0.006 0.50233,-0.10661 0.26621,-0.24093 0.21002,-0.57377 -0.17124,-1.01428 -0.37946,-0.43844 -0.44934,-0.86265 -0.2006,-1.21777 0.18673,-0.2666 0.63611,-0.4435 0.96135,-0.37845 0.39531,0.0791 0.3084,0.32348 -0.11928,0.33547 -0.55876,0.0157 -0.74495,0.50513 -0.33709,0.88616 0.31416,0.29349 0.45762,0.61072 0.45762,1.0119 0,0.51862 -0.34964,0.84482 -0.90365,0.84306 -0.22477,-6.8e-4 -0.4576,-0.0323 -0.51738,-0.0703 z m 1.96762,-0.10192 c -0.12394,-0.13695 -0.15507,-0.29909 -0.14781,-0.77 0.007,-0.48736 0.0583,-0.69638 0.27787,-1.14227 0.34104,-0.69276 0.75422,-0.99481 1.36079,-0.99481 0.22746,0 0.44054,0.027 0.47351,0.06 0.033,0.033 -0.0426,0.60227 -0.16795,1.26511 -0.12535,0.66284 -0.22755,1.329 -0.22711,1.48034 6.7e-4,0.23953 -0.0275,0.27516 -0.21761,0.27516 -0.20188,0 -0.21399,-0.0208 -0.1602,-0.27516 l 0.0582,-0.27517 -0.28833,0.27517 c -0.34197,0.32636 -0.72167,0.36652 -0.96135,0.10168 z m 0.9203,-0.44035 c 0.24079,-0.32243 0.35103,-0.64331 0.50771,-1.47789 0.13181,-0.7021 0.0802,-0.77762 -0.37471,-0.54792 -0.38464,0.19423 -0.67521,0.78641 -0.7318,1.49141 -0.0659,0.82086 0.20459,1.06226 0.5988,0.5344 z m 1.15778,0.47377 c 0,-0.077 0.0935,-0.63902 0.20778,-1.24884 0.11427,-0.60982 0.21905,-1.22306 0.23283,-1.36276 0.0187,-0.18943 0.0735,-0.26088 0.21556,-0.28106 0.16086,-0.0228 0.1905,0.0121 0.1905,0.22437 v 0.25142 l 0.28787,-0.28787 c 0.34019,-0.34019 0.6057,-0.38919 0.5275,-0.0974 -0.0281,0.10477 -0.0516,0.21494 -0.0522,0.24482 -6.8e-4,0.0299 -0.0963,0.0782 -0.21267,0.10741 -0.366,0.0919 -0.62597,0.61358 -0.82109,1.64778 -0.16646,0.88237 -0.19038,0.94215 -0.37691,0.94215 -0.12884,0 -0.19916,-0.0495 -0.19916,-0.14006 z m 1.524,0.0685 c 0,-0.0394 0.0961,-0.60134 0.21351,-1.24883 0.11743,-0.6475 0.23345,-1.3011 0.25784,-1.45244 0.0325,-0.20147 0.0887,-0.27517 0.20982,-0.27517 0.12764,0 0.1655,0.0584 0.1655,0.25534 v 0.25534 l 0.23283,-0.24872 c 0.29695,-0.3172 0.61439,-0.423 0.61254,-0.20416 -0.002,0.21508 -0.0944,0.33295 -0.31592,0.40208 -0.31419,0.098 -0.60344,0.71212 -0.7855,1.66756 -0.092,0.48284 -0.16728,0.8875 -0.16728,0.89923 0,0.0117 -0.0952,0.0213 -0.21167,0.0213 -0.11642,0 -0.21167,-0.0322 -0.21167,-0.0716 z m 1.69549,-0.0956 c -0.22678,-0.22678 -0.28686,-0.51554 -0.23234,-1.11678 0.0544,-0.60038 0.4193,-1.38254 0.7599,-1.62902 0.35328,-0.25566 0.79986,-0.22357 1.05753,0.076 0.19377,0.22527 0.20753,0.2961 0.17186,0.88477 -0.0457,0.75411 -0.30951,1.43397 -0.6762,1.74251 -0.31622,0.26609 -0.83671,0.28657 -1.08075,0.0425 z m 0.98633,-0.5507 c 0.22038,-0.39405 0.41382,-1.36679 0.33459,-1.68248 -0.0303,-0.12068 -0.13249,-0.26085 -0.22712,-0.3115 -0.47578,-0.25462 -1.13487,1.4101 -0.84963,2.14598 0.14023,0.36179 0.49553,0.28902 0.74216,-0.152 z m 0.95929,0.61205 c 2.6e-4,-0.0582 0.1717,-1.01604 0.380998,-2.12852 0.20931,-1.11248 0.38056,-2.05545 0.38056,-2.0955 0,-0.04 0.10965,-0.0728 0.24366,-0.0728 h 0.24367 l -0.10716,0.52916 c -0.0589,0.29105 -0.2494,1.28165 -0.42326,2.20134 -0.30547,1.61586 -0.3229,1.67216 -0.517508,1.67216 -0.11077,0 -0.2012,-0.0476 -0.20096,-0.10583 z m 1.015998,0 c 2.6e-4,-0.0582 0.1717,-1.01604 0.381,-2.12852 0.20931,-1.11248 0.38056,-2.05545 0.38056,-2.0955 0,-0.04 0.10965,-0.0728 0.24366,-0.0728 h 0.24367 l -0.10716,0.52916 c -0.0589,0.29105 -0.2494,1.28165 -0.42326,2.20134 -0.30547,1.61586 -0.3229,1.67216 -0.51751,1.67216 -0.11077,0 -0.2012,-0.0476 -0.20096,-0.10583 z m 1.35638,-0.0613 c -0.22678,-0.22678 -0.28686,-0.51554 -0.23234,-1.11678 0.0544,-0.60038 0.4193,-1.38254 0.7599,-1.62902 0.35328,-0.25566 0.79986,-0.22357 1.05753,0.076 0.19377,0.22527 0.20753,0.2961 0.17186,0.88477 -0.0457,0.75411 -0.30951,1.43397 -0.6762,1.74251 -0.31622,0.26609 -0.83671,0.28657 -1.08075,0.0425 z m 0.98633,-0.5507 c 0.22038,-0.39405 0.41382,-1.36679 0.33459,-1.68248 -0.0303,-0.12068 -0.13249,-0.26085 -0.22712,-0.3115 -0.47578,-0.25462 -1.13487,1.4101 -0.84963,2.14598 0.14023,0.36179 0.49553,0.28902 0.74216,-0.152 z m 2.39819,-1.39878 v -2.11667 h 0.22312 0.22312 l -0.0399,1.72789 -0.0399,1.7279 0.18265,-0.5214 c 0.10045,-0.28676 0.38947,-1.06426 0.64226,-1.72777 0.44502,-1.16806 0.4674,-1.20638 0.70457,-1.2065 l 0.24496,-8e-5 -0.0435,1.74126 -0.0435,1.74127 0.3593,-1.04277 c 0.79517,-2.30773 0.83448,-2.39464 1.09687,-2.42534 0.17049,-0.0199 0.2267,0.004 0.197,0.0847 -1.4282,3.86794 -1.54155,4.13096 -1.7809,4.13263 l -0.23283,0.002 -0.003,-1.67216 -0.003,-1.67217 -0.32503,0.84667 c -1.00768,2.62489 -0.94846,2.49766 -1.16257,2.49766 h -0.20048 z m 3.66198,1.9866 c -0.43581,-0.30525 -0.45365,-1.35455 -0.0369,-2.16896 0.25177,-0.49197 0.51456,-0.7204 0.92011,-0.79979 0.63771,-0.12485 0.96875,0.8152 0.4646,1.31935 -0.23562,0.23562 -0.71975,0.4234 -1.09399,0.42433 -0.23042,5.9e-4 -0.25594,0.27261 -0.0678,0.72285 0.10278,0.246 0.16547,0.29362 0.38656,0.29362 0.14514,0 0.33759,-0.0394 0.42766,-0.0876 0.14101,-0.0755 0.16377,-0.0591 0.16377,0.11794 0,0.11308 -0.0603,0.22872 -0.13393,0.25698 -0.25204,0.0967 -0.84426,0.0515 -1.03009,-0.0787 z m 0.91002,-1.80622 c 0.15345,-0.11333 0.21166,-0.23531 0.21166,-0.44352 0,-0.60328 -0.65323,-0.30595 -0.86845,0.39529 l -0.0952,0.31035 0.27019,-0.0529 c 0.1486,-0.0291 0.36543,-0.12325 0.48185,-0.20923 z m 0.89504,1.80324 c -0.19004,-0.19005 -0.17248,-0.39109 0.20562,-2.35414 0.18627,-0.96706 0.33867,-1.79366 0.33867,-1.83689 0,-0.0432 0.10965,-0.0786 0.24366,-0.0786 h 0.24366 l -0.10708,0.52916 c -0.0589,0.29105 -0.13381,0.68157 -0.16648,0.86784 l -0.0594,0.33866 0.19799,-0.18422 c 0.32769,-0.30492 0.6204,-0.33238 0.87106,-0.0817 0.18236,0.18236 0.21592,0.2931 0.21592,0.71241 0,0.89489 -0.3538,1.69904 -0.90844,2.06476 -0.29181,0.19242 -0.89278,0.20513 -1.07518,0.0227 z m 1.01462,-0.43033 c 0.22552,-0.24334 0.54567,-1.16316 0.54567,-1.56778 0,-0.57517 -0.35427,-0.75278 -0.71823,-0.36006 -0.22938,0.24751 -0.6016,1.69282 -0.51016,1.98093 0.0784,0.247 0.42995,0.21966 0.68272,-0.0531 z m 0.92768,0.39724 c -0.0779,-0.24557 0.0982,-0.5112 0.33902,-0.5112 0.24569,0 0.37796,0.34832 0.20939,0.55143 -0.15209,0.18326 -0.48523,0.15882 -0.54841,-0.0402 z m -21.231178,-4.20593 c -0.13984,-0.0406 -0.20365,-0.28556 -0.1011,-0.38811 0.0259,-0.0259 0.1762,-0.007 0.33402,0.041 0.49468,0.15182 0.83961,-0.20027 1.01704,-1.03816 l 0.0627,-0.29633 -0.23398,0.23283 c -0.2806,0.27922 -0.64636,0.30537 -0.88823,0.0635 -0.13398,-0.13397 -0.16933,-0.28222 -0.16933,-0.70994 0,-0.75998 0.21863,-1.37473 0.63841,-1.79511 0.37826,-0.37879 0.66496,-0.47214 1.18192,-0.38481 0.40484,0.0684 0.40532,-0.0718 -0.007,2.0246 -0.30664,1.55932 -0.42349,1.88346 -0.75805,2.10267 -0.21708,0.14224 -0.81367,0.22418 -1.07651,0.14786 z m 1.15815,-1.8721 c 0.25962,-0.39621 0.59788,-1.97454 0.44394,-2.07147 -0.29901,-0.18828 -0.83354,0.31251 -1.02627,0.9615 -0.33718,1.13543 0.0643,1.90059 0.58233,1.10997 z m 51.548258,1.83938 c -0.12808,-0.0515 -0.172,-0.1206 -0.13611,-0.2141 0.0422,-0.10989 0.12517,-0.12723 0.40679,-0.085 0.45479,0.0682 0.73623,-0.13771 0.88235,-0.64553 0.0579,-0.20107 0.12678,-0.43983 0.15317,-0.53057 0.041,-0.14098 0.008,-0.13174 -0.22356,0.0635 -0.70307,0.59159 -1.22517,0.002 -1.01666,-1.14763 0.21337,-1.17669 0.88844,-1.83467 1.74046,-1.69641 0.16631,0.027 0.32088,0.0973 0.3435,0.1562 0.0742,0.19344 -0.49216,3.03241 -0.69642,3.49075 -0.15471,0.34714 -0.26596,0.47523 -0.49637,0.5715 -0.33113,0.13835 -0.67277,0.15166 -0.95715,0.0373 z m 1.0682,-1.70011 c 0.23004,-0.24691 0.32308,-0.50528 0.50508,-1.40262 0.15028,-0.74087 0.15062,-0.77831 0.008,-0.8157 -0.53,-0.1386 -1.09392,0.77076 -1.09502,1.76578 -8.5e-4,0.61535 0.2495,0.80977 0.5823,0.45254 z m -59.595439,0.46282 c 0,-0.12708 0.780519,-4.14014 0.81134,-4.17153 0.01869,-0.019 0.253353,-0.0362 0.521483,-0.0382 0.943488,-0.007 1.291843,0.39619 1.291843,1.49481 0,1.19872 -0.504597,2.2832 -1.211723,2.60424 -0.33859,0.15372 -1.412943,0.23785 -1.412943,0.11064 z m 1.370606,-0.55116 c 0.310814,-0.21965 0.636922,-0.92497 0.757534,-1.63843 0.115697,-0.68439 0.0576,-1.11702 -0.192742,-1.43528 -0.14276,-0.18149 -0.235517,-0.21984 -0.481565,-0.19909 l -0.304747,0.0257 -0.316208,1.651 c -0.173915,0.90805 -0.29914,1.70166 -0.27828,1.76358 0.04941,0.14664 0.503349,0.0535 0.816008,-0.16748 z m 1.341828,0.28773 c 0.03837,-0.17462 0.171886,-0.86042 0.296695,-1.524 0.21673,-1.15228 0.236018,-1.2065 0.429232,-1.2065 0.111268,0 0.202305,0.0464 0.202305,0.10313 0,0.0567 -0.121406,0.74252 -0.269791,1.524 l -0.26979,1.42087 h -0.22921 c -0.220822,0 -0.226657,-0.0116 -0.159441,-0.3175 z m 1.316758,0.057 c -0.547836,-0.65107 -0.05839,-2.41099 0.766349,-2.75559 0.70871,-0.29612 1.20837,0.34633 0.83336,1.07152 -0.15589,0.30146 -0.4992,0.49005 -1.02268,0.5618 l -0.39202,0.0537 0.04149,0.36813 c 0.06105,0.54166 0.18543,0.65129 0.67332,0.5935 0.35459,-0.042 0.40499,-0.0285 0.40499,0.10833 0,0.19731 -0.16133,0.25906 -0.67674,0.25906 -0.352637,0 -0.439029,-0.0358 -0.628072,-0.26049 z m 1.050809,-1.67579 c 0.29329,-0.21661 0.30419,-0.7176 0.0165,-0.75838 -0.30132,-0.0427 -0.55545,0.24191 -0.735127,0.82335 -0.05958,0.1928 -0.04839,0.20021 0.222107,0.14719 0.15667,-0.0307 0.3801,-0.12618 0.49651,-0.21216 z m 3.30814,1.7132 c -0.21811,-0.27729 -0.23858,-1.0577 -0.0448,-1.71007 0.24366,-0.82048 0.93773,-1.34603 1.45198,-1.09945 0.357,0.17118 0.46486,0.45248 0.41612,1.08527 -0.0572,0.74332 -0.26802,1.31164 -0.61517,1.65879 -0.24072,0.24073 -0.35019,0.28854 -0.66057,0.28854 -0.30107,0 -0.40551,-0.0425 -0.54751,-0.22308 z m 1.02964,-0.42446 c 0.20296,-0.34887 0.42576,-1.42925 0.35819,-1.7369 -0.0292,-0.1329 -0.12721,-0.28131 -0.21782,-0.3298 -0.50799,-0.27187 -1.19038,1.54686 -0.83179,2.21688 0.13716,0.25628 0.50092,0.17727 0.69142,-0.15018 z m 2.23522,-1.27862 c 0.2001,-1.05939 0.38491,-2.01189 0.41069,-2.11667 0.0443,-0.17993 0.089,-0.1905 0.80726,-0.1905 0.70394,0 0.76038,0.0126 0.76038,0.16933 0,0.15297 -0.0564,0.16934 -0.58397,0.16934 h -0.58398 l -0.0983,0.5715 c -0.0541,0.31432 -0.11926,0.65722 -0.14487,0.762 -0.0445,0.18202 -0.0233,0.1905 0.47651,0.1905 0.49401,0 0.52156,0.0106 0.49601,0.1905 -0.0243,0.1708 -0.0811,0.19309 -0.55004,0.21554 l -0.52298,0.025 -0.0851,0.39829 c -0.0468,0.21906 -0.13239,0.65546 -0.19015,0.96978 -0.0985,0.53593 -0.11904,0.5715 -0.33013,0.5715 h -0.22511 z m 1.99965,1.7961 c -0.43581,-0.30525 -0.45365,-1.35455 -0.0369,-2.16896 0.25177,-0.49197 0.51456,-0.7204 0.920108,-0.79979 0.63771,-0.12485 0.96875,0.8152 0.4646,1.31935 -0.23562,0.23562 -0.71975,0.4234 -1.093988,0.42433 -0.23042,5.9e-4 -0.25594,0.27261 -0.0678,0.72285 0.10278,0.246 0.16548,0.29362 0.38657,0.29362 0.145128,0 0.337578,-0.0394 0.427648,-0.0876 0.14101,-0.0755 0.16377,-0.0591 0.16377,0.11794 0,0.11308 -0.0603,0.22872 -0.13393,0.25698 -0.25204,0.0967 -0.844258,0.0515 -1.030088,-0.0787 z m 0.910018,-1.80622 c 0.15345,-0.11333 0.21166,-0.23531 0.21166,-0.44352 0,-0.60328 -0.653228,-0.30595 -0.868448,0.39529 l -0.0952,0.31036 0.27019,-0.0529 c 0.148598,-0.0291 0.365428,-0.12325 0.481848,-0.20923 z m 0.67733,1.86472 c 0,-0.0394 0.0961,-0.60134 0.21351,-1.24883 0.11742,-0.6475 0.23345,-1.3011 0.25783,-1.45244 0.0325,-0.20147 0.0887,-0.27517 0.20983,-0.27517 0.12763,0 0.1655,0.0584 0.1655,0.25534 v 0.25534 l 0.23283,-0.24872 c 0.29695,-0.3172 0.61438,-0.423 0.61254,-0.20416 -0.002,0.21508 -0.0944,0.33296 -0.31593,0.40208 -0.31418,0.098 -0.60344,0.71212 -0.7855,1.66757 -0.092,0.48283 -0.16728,0.88749 -0.16728,0.89922 0,0.0117 -0.0953,0.0213 -0.21166,0.0213 -0.11642,0 -0.21167,-0.0322 -0.21167,-0.0716 z m 1.52405,0.008 c 3e-5,-0.0349 0.11433,-0.68612 0.254,-1.44709 0.13967,-0.76098 0.25395,-1.4182 0.25395,-1.4605 0,-0.0423 0.096,-0.0769 0.21328,-0.0769 0.18977,0 0.20712,0.0257 0.15739,0.23283 l -0.0559,0.23283 0.20244,-0.17992 c 0.45165,-0.4014 0.74738,-0.46047 1.00677,-0.20108 0.21638,0.21638 0.21635,0.55424 -1.7e-4,1.69333 -0.25222,1.32718 -0.23119,1.27 -0.46715,1.27 -0.11549,0 -0.21001,-0.0139 -0.21001,-0.031 0,-0.0171 0.0965,-0.54093 0.21451,-1.16416 0.23791,-1.25671 0.22499,-1.51415 -0.076,-1.51415 -0.35659,0 -0.66347,0.51117 -0.81544,1.35826 -0.23153,1.29062 -0.2527,1.35107 -0.47309,1.35107 -0.11256,0 -0.20463,-0.0286 -0.2046,-0.0635 z m 2.58708,-0.12467 c -0.28461,-0.40634 -0.10772,-1.62995 0.32614,-2.25601 0.30671,-0.44258 0.66323,-0.62801 1.20745,-0.62801 0.25042,0 0.4747,0.0194 0.49839,0.0431 0.0237,0.0237 -0.0506,0.47681 -0.16502,1.00693 -0.11446,0.53011 -0.23493,1.20197 -0.2677,1.49301 -0.0495,0.43931 -0.0865,0.52917 -0.21799,0.52917 -0.12165,-1e-5 -0.1584,-0.0627 -0.1584,-0.27008 v -0.27007 l -0.26405,0.27007 c -0.32826,0.33576 -0.75545,0.37225 -0.95882,0.0819 z m 0.85886,-0.341 c 0.0954,-0.10478 0.22036,-0.28117 0.27762,-0.39199 0.15262,-0.29537 0.43135,-1.73108 0.35157,-1.81086 -0.11032,-0.11033 -0.47434,0.072 -0.7151,0.35807 -0.38571,0.45839 -0.6014,1.48354 -0.39377,1.87151 0.11529,0.21541 0.26683,0.20697 0.47968,-0.0267 z m 1.21073,0.46566 c 3e-5,-0.0349 0.11433,-0.68611 0.254,-1.44709 0.13967,-0.76097 0.25395,-1.4182 0.25395,-1.4605 0,-0.0423 0.096,-0.0769 0.21328,-0.0769 0.18977,0 0.20712,0.0257 0.15739,0.23284 l -0.0559,0.23283 0.20244,-0.17992 c 0.45165,-0.4014 0.74738,-0.46047 1.00678,-0.20108 0.21637,0.21638 0.21635,0.55424 -1.7e-4,1.69333 -0.25223,1.32718 -0.23119,1.27 -0.46715,1.27 -0.11549,0 -0.21002,-0.0139 -0.21002,-0.031 0,-0.0171 0.0965,-0.54093 0.21452,-1.16416 0.2379,-1.25671 0.22498,-1.51415 -0.076,-1.51415 -0.35658,0 -0.66347,0.51117 -0.81543,1.35826 -0.23154,1.29062 -0.25271,1.35107 -0.47309,1.35107 -0.11256,0 -0.20463,-0.0286 -0.2046,-0.0635 z m 2.67312,-0.0694 c -0.0731,-0.0731 -0.15716,-0.22951 -0.18679,-0.34756 -0.0772,-0.30757 0.0216,-1.20206 0.17261,-1.56246 0.28058,-0.66973 0.90907,-1.15367 1.35343,-1.04214 0.1922,0.0482 0.20607,0.0214 0.31679,-0.6124 0.11103,-0.6356 0.1258,-0.66399 0.35947,-0.69069 0.21753,-0.0248 0.23849,-0.007 0.19529,0.16934 -0.0937,0.38172 -0.6401,3.3352 -0.69825,3.77433 -0.0511,0.38591 -0.0838,0.4445 -0.24789,0.4445 -0.15988,0 -0.18258,-0.0359 -0.14728,-0.23283 l 0.0417,-0.23283 -0.24861,0.23283 c -0.28295,0.26499 -0.6997,0.31072 -0.91051,0.0999 z m 0.88752,-0.4224 c 0.28399,-0.3023 0.63074,-1.97382 0.44123,-2.12703 -0.29894,-0.24167 -0.74036,0.18212 -0.96705,0.92843 -0.32705,1.07676 -0.0191,1.77867 0.52582,1.1986 z m 1.52146,0.38815 c -0.22678,-0.22679 -0.28686,-0.51555 -0.23234,-1.11679 0.0544,-0.60038 0.4193,-1.38254 0.75989,-1.62902 0.35329,-0.25566 0.79987,-0.22357 1.05754,0.076 0.19377,0.22527 0.20752,0.2961 0.17186,0.88477 -0.0457,0.75411 -0.30952,1.43397 -0.6762,1.74251 -0.31622,0.26609 -0.83672,0.28657 -1.08075,0.0425 z m 0.98633,-0.55071 c 0.22037,-0.39405 0.41382,-1.36679 0.33459,-1.68248 -0.0303,-0.12068 -0.1325,-0.26085 -0.22713,-0.31149 -0.47578,-0.25463 -1.13486,1.41009 -0.84962,2.14597 0.14023,0.36179 0.49552,0.28902 0.74216,-0.152 z m 1.68242,0.61205 c 0.0225,-0.0582 0.41317,-1.00118 0.86813,-2.0955 0.80969,-1.94752 0.8327,-1.99021 1.08599,-2.01519 l 0.25877,-0.0255 0.0555,1.33786 c 0.0305,0.73582 0.0556,1.69029 0.0558,2.12103 2.5e-4,0.77901 -8.5e-4,0.78316 -0.21139,0.78316 -0.20696,0 -0.21166,-0.0141 -0.21166,-0.635 v -0.635 h -0.4968 -0.49679 l -0.24244,0.635 c -0.22012,0.57654 -0.26378,0.635 -0.47422,0.635 -0.1508,0 -0.21748,-0.037 -0.19085,-0.10583 z m 1.89537,-2.58233 c -0.004,-0.70165 -0.032,-1.02023 -0.0807,-0.91017 -0.26649,0.60238 -0.73131,1.90576 -0.69323,1.94384 0.0252,0.0252 0.21093,0.0458 0.41272,0.0458 h 0.36689 l -0.006,-1.0795 z m 0.87851,2.45533 c 0.0252,-0.12806 0.21063,-1.11863 0.41203,-2.20128 l 0.36619,-1.96844 0.23444,-6e-5 c 0.19926,-4e-5 0.22809,0.0285 0.19207,0.19045 -0.0233,0.10477 -0.19619,1.00965 -0.38418,2.01083 -0.18799,1.00118 -0.36087,1.90606 -0.38418,2.01083 -0.0307,0.13779 -0.10324,0.1905 -0.2623,0.1905 -0.19459,0 -0.21465,-0.0268 -0.17407,-0.23283 z m 1.21467,0.078 c -0.0771,-0.0852 -0.14134,-0.20898 -0.14283,-0.27517 -0.001,-0.0662 0.16044,-0.98701 0.35984,-2.04628 l 0.36254,-1.92596 0.23444,-1.7e-4 c 0.19876,-1.7e-4 0.22827,0.0288 0.19384,0.19029 -0.0223,0.10478 -0.0828,0.4191 -0.13445,0.6985 -0.0516,0.2794 -0.11499,0.5842 -0.14085,0.67733 -0.045,0.16217 -0.0385,0.16154 0.154,-0.0149 0.45016,-0.41255 1.00674,-0.2533 1.12159,0.32092 0.1432,0.71601 -0.35986,2.03292 -0.90312,2.36416 -0.35096,0.21399 -0.91634,0.21978 -1.105,0.0113 z m 1.04122,-0.43356 c 0.38533,-0.4125 0.63493,-1.56369 0.42435,-1.95717 -0.15529,-0.29015 -0.53366,-0.13726 -0.79184,0.31996 -0.114,0.2019 -0.38855,1.62422 -0.33863,1.75431 0.0832,0.21684 0.45117,0.15582 0.70612,-0.1171 z m 1.34786,0.44812 c -0.0768,-0.0927 -0.11504,-0.3584 -0.11278,-0.78317 0.006,-1.06685 0.50783,-1.90425 1.26769,-2.11406 0.30692,-0.0847 0.88789,-0.0378 0.88789,0.0717 0,0.033 -0.0926,0.53287 -0.2058,1.11075 -0.11319,0.57788 -0.22983,1.23167 -0.25919,1.45286 -0.0429,0.32313 -0.0857,0.40216 -0.21753,0.40216 -0.12718,0 -0.16415,-0.0592 -0.16415,-0.26295 v -0.26295 l -0.24563,0.26295 c -0.28227,0.30217 -0.75164,0.36275 -0.9505,0.12268 z m 0.8328,-0.38889 c 0.27864,-0.30473 0.4194,-0.65017 0.57311,-1.40644 0.15822,-0.77845 0.11821,-0.91452 -0.23,-0.78213 -0.57976,0.22042 -1.11724,1.66637 -0.82347,2.2153 0.11528,0.21539 0.26668,0.20696 0.48036,-0.0267 z m 1.21,0.50441 c 0,-0.0136 0.0908,-0.49938 0.20169,-1.0795 0.11094,-0.58011 0.22881,-1.25477 0.26195,-1.49925 0.0543,-0.40084 0.0809,-0.4445 0.2707,-0.4445 0.19238,0 0.20568,0.0236 0.15489,0.27517 l -0.0556,0.27517 0.197,-0.22486 c 0.17719,-0.20224 0.48882,-0.41014 0.61477,-0.41014 0.0263,0 0.0479,0.0962 0.0479,0.21376 0,0.14343 -0.0627,0.23797 -0.1905,0.28735 -0.24073,0.093 -0.53616,0.40904 -0.64092,0.68565 -0.0444,0.1172 -0.14469,0.5363 -0.22288,0.93133 -0.20065,1.01363 -0.20106,1.01457 -0.43307,1.01457 -0.11328,0 -0.20596,-0.0111 -0.20596,-0.0247 z m 1.524,0 c 0,-0.0136 0.0908,-0.49938 0.20169,-1.0795 0.11094,-0.58011 0.22881,-1.25477 0.26195,-1.49925 0.0543,-0.40084 0.0809,-0.4445 0.2707,-0.4445 0.19238,0 0.20568,0.0236 0.15489,0.27517 l -0.0556,0.27517 0.197,-0.22486 c 0.17719,-0.20224 0.48882,-0.41014 0.61477,-0.41014 0.0264,0 0.0479,0.0962 0.0479,0.21376 0,0.14343 -0.0627,0.23797 -0.1905,0.28735 -0.24073,0.093 -0.53616,0.40904 -0.64092,0.68565 -0.0444,0.1172 -0.14469,0.5363 -0.22288,0.93133 -0.20065,1.01363 -0.20106,1.01457 -0.43307,1.01457 -0.11328,0 -0.20596,-0.0111 -0.20596,-0.0247 z m 1.59787,-0.11552 c -0.0768,-0.0927 -0.11504,-0.3584 -0.11278,-0.78317 0.006,-1.06685 0.50783,-1.90425 1.26768,-2.11406 0.30692,-0.0847 0.8879,-0.0378 0.8879,0.0717 0,0.033 -0.0926,0.53287 -0.2058,1.11075 -0.1132,0.57788 -0.22983,1.23167 -0.25919,1.45286 -0.0429,0.32313 -0.0856,0.40216 -0.21754,0.40216 -0.12718,0 -0.16414,-0.0592 -0.16414,-0.26295 v -0.26295 l -0.24564,0.26295 c -0.28226,0.30217 -0.75163,0.36275 -0.95049,0.12268 z m 0.8328,-0.38889 c 0.27864,-0.30473 0.41939,-0.65017 0.57311,-1.40644 0.15821,-0.77845 0.1182,-0.91452 -0.23001,-0.78213 -0.57975,0.22042 -1.11724,1.66637 -0.82346,2.2153 0.11527,0.21539 0.26667,0.20696 0.48036,-0.0267 z m 1.63846,0.381 c -0.42314,-0.34267 -0.39252,-1.48065 0.0598,-2.2225 0.26935,-0.44178 0.90211,-0.81389 1.23983,-0.72913 0.30913,0.0776 0.19873,0.39046 -0.13777,0.39046 -0.32976,0 -0.77914,0.44401 -0.90379,0.89297 -0.24832,0.8944 -0.0177,1.55137 0.50762,1.4463 0.21763,-0.0435 0.24518,-0.0255 0.24518,0.16051 0,0.19439 -0.03,0.20955 -0.41395,0.20955 -0.2681,0 -0.47843,-0.0522 -0.59692,-0.14816 z m 1.35488,0.0423 c 0.003,-0.0582 0.12778,-0.73448 0.27743,-1.50283 0.2699,-1.38572 0.27398,-1.39722 0.50576,-1.42409 0.20532,-0.0238 0.2285,-0.003 0.19107,0.16933 -0.0234,0.10803 -0.1404,0.71077 -0.25994,1.33942 -0.11954,0.62865 -0.23584,1.22873 -0.25845,1.3335 -0.0292,0.13532 -0.10195,0.1905 -0.25117,0.1905 -0.11552,0 -0.20764,-0.0476 -0.2047,-0.10583 z m 1.0334,-0.0567 c 0.0234,-0.0894 0.15163,-0.77513 0.28504,-1.52392 0.23284,-1.3069 0.25057,-1.36144 0.44292,-1.36151 0.16737,-6e-5 0.19379,0.0343 0.16044,0.20879 l -0.0399,0.20886 0.24826,-0.20889 c 0.34113,-0.28704 0.61473,-0.34167 0.87081,-0.17388 0.18165,0.11902 0.21041,0.19992 0.20649,0.58083 -0.003,0.2434 -0.0885,0.8807 -0.19118,1.41621 -0.18193,0.94918 -0.19254,0.97435 -0.42188,1.00076 -0.20766,0.0239 -0.2299,0.004 -0.18969,-0.16933 0.0251,-0.10803 0.12159,-0.59648 0.21451,-1.08543 0.25283,-1.33036 0.22544,-1.51423 -0.20935,-1.40511 -0.30713,0.0771 -0.53493,0.53754 -0.7206,1.45652 -0.25991,1.28648 -0.23326,1.21859 -0.47841,1.21859 -0.17516,0 -0.21127,-0.0331 -0.17743,-0.16249 z m 3.27969,0.099 c 0,-0.0349 0.1717,-0.97371 0.381,-2.08618 0.20931,-1.11248 0.38056,-2.03123 0.38056,-2.04166 0,-0.0104 0.16578,-0.0417 0.36841,-0.0695 0.44404,-0.0609 0.90778,0.0544 1.10774,0.27539 0.37441,0.4137 0.16055,1.46077 -0.35929,1.75912 l -0.2459,0.14113 0.14801,0.25942 c 0.0998,0.17497 0.16139,0.51587 0.18915,1.04721 l 0.0411,0.78779 -0.22246,-0.0258 c -0.21836,-0.0253 -0.22327,-0.0401 -0.26541,-0.79667 -0.0476,-0.854 -0.14328,-1.04945 -0.51392,-1.04945 -0.21076,0 -0.24654,0.0384 -0.2955,0.3175 -0.0306,0.17462 -0.10855,0.57716 -0.17317,0.89453 -0.0646,0.31737 -0.11747,0.5936 -0.11747,0.61384 0,0.0202 -0.0952,0.0368 -0.21167,0.0368 -0.11642,0 -0.21147,-0.0286 -0.21123,-0.0635 z m 1.38749,-2.2662 c 0.14878,-0.0706 0.33552,-0.2384 0.41496,-0.37289 0.16918,-0.2864 0.19007,-0.84836 0.0386,-1.03873 -0.12429,-0.15624 -0.49079,-0.25691 -0.62252,-0.17099 -0.0707,0.0461 -0.37231,1.39047 -0.37231,1.65962 0,0.0919 0.2646,0.0543 0.54126,-0.077 z m 1.3728,2.17039 c -0.47627,-0.52629 -0.28993,-1.88165 0.35324,-2.56923 0.50742,-0.54246 1.15204,-0.47257 1.35911,0.14735 0.23409,0.7008 -0.1981,2.11605 -0.74483,2.439 -0.32413,0.19147 -0.78614,0.18329 -0.96752,-0.0171 z m 0.85724,-0.36985 c 0.3866,-0.41809 0.59605,-1.84873 0.31221,-2.13257 -0.23277,-0.23276 -0.66435,0.14988 -0.84137,0.74596 -0.15114,0.50894 -0.1645,1.33488 -0.0239,1.47551 0.15473,0.15473 0.35796,0.12206 0.55303,-0.0889 z m 1.31582,0.29995 c -0.24171,-0.36906 -0.18226,-1.25441 0.12887,-1.91929 0.29685,-0.63434 0.63343,-0.9089 1.13796,-0.92826 l 0.35346,-0.0136 0.1174,-0.65617 c 0.10811,-0.6043 0.13351,-0.65616 0.32129,-0.65616 0.11215,0 0.20416,0.0476 0.20448,0.10583 8.4e-4,0.0816 -0.40958,2.38721 -0.73027,4.10633 -0.0515,0.27586 -0.37098,0.26094 -0.37098,-0.0173 v -0.20782 l -0.20781,0.20782 c -0.2972,0.29719 -0.75243,0.28699 -0.9544,-0.0214 z m 0.91159,-0.28217 c 0.23019,-0.23019 0.30407,-0.44377 0.45879,-1.3264 0.11988,-0.68385 0.11924,-0.75288 -0.008,-0.84675 -0.21923,-0.16211 -0.57551,0.076 -0.7964,0.53232 -0.22908,0.47322 -0.32975,1.4893 -0.16698,1.68543 0.14513,0.17486 0.30694,0.16078 0.51231,-0.0446 z m 1.21504,0.36322 c 0.0839,-0.27944 0.47492,-2.50397 0.47492,-2.70195 0,-0.15463 0.0463,-0.19789 0.21166,-0.19789 0.17401,0 0.21201,0.0414 0.21355,0.23284 l 0.002,0.23283 0.14628,-0.18059 c 0.14619,-0.18047 0.4491,-0.36974 0.59173,-0.36974 0.0416,0 0.0598,0.10477 0.0405,0.23283 -0.0241,0.15987 -0.11881,0.27263 -0.30238,0.35983 -0.38325,0.18206 -0.60441,0.65004 -0.78345,1.65783 -0.15576,0.87671 -0.15822,0.88217 -0.39797,0.88217 -0.19026,0 -0.23184,-0.0313 -0.19676,-0.14816 z m 1.53003,-0.0364 c 0.0249,-0.10803 0.14139,-0.71078 0.25882,-1.33943 0.30447,-1.62989 0.26916,-1.524 0.50802,-1.524 0.11553,0 0.20764,0.0476 0.20471,0.10584 -0.003,0.0582 -0.12779,0.73448 -0.27744,1.50283 -0.2699,1.38572 -0.27398,1.39722 -0.50576,1.42409 -0.20594,0.0239 -0.22828,0.004 -0.18835,-0.16933 z m 3.64993,0.0515 c -0.17606,-0.17607 -0.16779,-0.57186 0.0344,-1.64512 0.2483,-1.31803 0.23011,-1.26984 0.47905,-1.26984 0.17833,0 0.21154,0.0321 0.17559,0.16954 -0.0244,0.0933 -0.13088,0.64705 -0.23666,1.23069 -0.17835,0.98395 -0.18222,1.07126 -0.0533,1.20014 0.11306,0.11307 0.17831,0.12109 0.34972,0.043 0.31577,-0.14388 0.48628,-0.54954 0.68401,-1.62736 0.1754,-0.95612 0.18293,-0.97416 0.41792,-1.0015 0.21276,-0.0247 0.23402,-0.006 0.1916,0.16933 -0.0721,0.29809 -0.38045,2.00511 -0.44469,2.46201 -0.0496,0.35265 -0.0816,0.40216 -0.2602,0.40216 -0.17951,0 -0.19679,-0.0274 -0.14569,-0.23099 l 0.058,-0.231 -0.27452,0.231 c -0.3132,0.26353 -0.76426,0.30884 -0.97516,0.0979 z m 2.49377,-0.0341 c -0.22837,-0.22838 -0.28507,-0.50862 -0.23747,-1.17381 0.0448,-0.62608 0.2093,-1.02002 0.59628,-1.42794 0.48193,-0.50798 1.08066,-0.44669 1.25292,0.12825 0.19046,0.63571 -0.22515,1.11266 -1.09007,1.25097 -0.34108,0.0545 -0.35447,0.0683 -0.35447,0.36569 0,0.16995 0.0626,0.39834 0.13906,0.50754 0.12326,0.17599 0.18578,0.193 0.55034,0.14983 0.36028,-0.0427 0.41126,-0.0294 0.41126,0.10676 0,0.30058 -0.98774,0.37281 -1.26785,0.0927 z m 0.69716,-1.6155 c 0.38091,-0.10578 0.61166,-0.41327 0.53608,-0.71437 -0.0641,-0.25531 -0.37876,-0.29028 -0.57705,-0.0641 -0.15686,0.17889 -0.40434,0.65567 -0.40434,0.77896 0,0.11019 0.047,0.11014 0.44531,-5.1e-4 z m 0.7204,1.59217 c 0.0271,-0.10477 0.38544,-0.67577 0.79641,-1.26888 0.41097,-0.59312 0.74722,-1.11699 0.74722,-1.16417 0,-0.0475 -0.20765,-0.0858 -0.46567,-0.0858 -0.40922,0 -0.46567,-0.0205 -0.46567,-0.16933 0,-0.15754 0.0564,-0.16934 0.81004,-0.16934 0.80107,0 0.80939,0.002 0.75106,0.1905 -0.0324,0.10478 -0.39695,0.67874 -0.81003,1.27548 -0.41309,0.59674 -0.75107,1.10156 -0.75107,1.12183 0,0.0203 0.24765,0.0369 0.55034,0.0369 0.5456,0 0.59827,0.0306 0.49894,0.28941 -0.042,0.10951 -0.20262,0.13392 -0.88108,0.13392 -0.81854,0 -0.82902,-0.003 -0.78049,-0.1905 z m -96.796701,-2.13645 c -1.373513,-0.25571 -2.264409,-0.72335 -3.230298,-1.69563 -0.545494,-0.5491 -0.761892,-0.84389 -1.031594,-1.4053 -0.772786,-1.60864 -0.836605,-2.7691 -0.314956,-5.72695 0.182729,-1.03611 0.356255,-1.88383 0.385614,-1.88383 0.04243,0 5.638049,10.48611 5.743456,10.76316 0.04077,0.10714 -0.860906,0.0773 -1.552222,-0.0514 z m 8.054892,-6.58421 c 2.651348,-5.30077 3.28579,-6.5084 3.347141,-6.37117 0.04164,0.0931 1.267968,2.91254 2.725183,6.26534 2.392911,5.50567 2.632469,6.09805 2.473799,6.11725 -0.191677,0.0232 -11.304874,0.52908 -11.622531,0.52908 -0.177052,0 0.106596,-0.60304 3.076408,-6.5405 z m 68.949439,5.47607 c 0,-0.0266 0.0989,-0.21713 0.21971,-0.42333 0.18395,-0.31388 0.26188,-0.37491 0.47879,-0.37491 h 0.25908 l -0.15885,0.1905 c -0.40082,0.48068 -0.5847,0.65617 -0.68757,0.65617 -0.0611,0 -0.11116,-0.0218 -0.11116,-0.0484 z m 12.86933,0.01 c 0,-0.0214 0.1045,-0.21189 0.23222,-0.42334 0.18728,-0.31006 0.27831,-0.38445 0.47046,-0.38445 0.26556,0 0.25446,0.0305 -0.21038,0.57859 -0.19085,0.22503 -0.4923,0.36537 -0.4923,0.2292 z M 89.192323,166.2771 c -0.02576,-0.0671 -0.03357,-0.19095 -0.01735,-0.27517 0.0401,-0.20819 0.437434,-0.20892 0.477499,-8.8e-4 0.05824,0.3024 -0.354926,0.55025 -0.460149,0.27605 z m -14.679848,-0.17513 c 0,-0.11171 8.072157,-21.20755 8.103074,-21.17663 0.05867,0.0587 -2.51737,14.40448 -2.692946,14.99682 -0.696941,2.35125 -2.620838,4.70535 -4.844283,5.92751 -0.311215,0.17106 -0.565845,0.2846 -0.565845,0.2523 z m 14.181666,-1.82661 c -0.912102,-0.0933 -2.233849,-0.33182 -2.283472,-0.41211 -0.03799,-0.0615 5.161723,-27.67557 5.222783,-27.73663 0.0159,-0.0158 0.58018,-0.11452 1.25408,-0.21927 1.05337,-0.16374 1.56975,-0.19112 3.68061,-0.19516 2.27803,-0.004 2.50938,0.009 3.20378,0.18602 3.362398,0.85681 5.364488,3.03141 6.158348,6.68896 0.25462,1.17315 0.32447,4.47073 0.1302,6.14666 -0.63788,5.50267 -3.04338,10.63142 -6.153408,13.11965 -1.67638,1.34121 -3.47317,2.08859 -5.75006,2.39175 -0.97665,0.13004 -4.306349,0.14841 -5.462861,0.0301 z m 6.636011,-4.82778 c 1.30576,-0.6419 2.50741,-2.01338 3.34474,-3.81745 1.21878,-2.62593 1.924668,-5.64079 2.075468,-8.86426 0.18676,-3.99221 -0.65206,-6.14934 -2.618258,-6.73324 -0.54636,-0.16225 -1.77013,-0.17991 -1.96158,-0.0283 -0.0969,0.0768 -0.65735,2.80404 -2.0399,9.92717 -1.04845,5.40173 -1.89285,9.83529 -1.87646,9.85236 0.0164,0.0171 0.327,0.0555 0.69023,0.0855 0.98836,0.0815 1.57189,-0.0217 2.38576,-0.42175 z m 10.112398,4.64441 c 0.0248,-0.10478 1.25589,-6.52463 2.73575,-14.26633 l 2.69065,-14.07584 h 5.95176 c 3.27347,0 5.95334,0.0286 5.95528,0.0635 0.002,0.0349 -0.1972,1.08268 -0.44251,2.32834 l -0.44603,2.26483 h -3.27682 -3.27682 l -0.0904,0.4445 c -0.31701,1.55946 -1.36098,6.98231 -1.36098,7.06958 0,0.0828 0.67496,0.10592 3.09951,0.10592 h 3.09952 l -0.0463,0.1905 c -0.0255,0.10477 -0.20082,1.00965 -0.38962,2.01083 -0.1888,1.00119 -0.3633,1.90606 -0.38778,2.01084 l -0.0445,0.1905 h -3.08272 -3.08272 l -0.0899,0.4445 c -0.0494,0.24447 -0.54683,2.82575 -1.10534,5.73616 -0.5585,2.91042 -1.03583,5.37739 -1.06073,5.48217 l -0.0453,0.1905 h -2.67457 -2.67456 z m 11.16296,0.11786 c 0.0157,-0.0413 2.61699,-6.46218 5.78055,-14.26859 l 5.75192,-14.19349 3.09574,0.0222 3.09575,0.0222 0.0971,10.37166 c 0.0534,5.70442 0.10105,12.11474 0.10584,14.24517 l 0.009,3.8735 h -2.54935 -2.54935 l 0.0626,-3.34556 0.0626,-3.34555 -2.64677,0.0224 -2.64677,0.0224 -1.24557,3.302 -1.24556,3.30199 -2.6031,0.0224 c -1.48993,0.0128 -2.59085,-0.01 -2.57446,-0.0527 z m 13.14147,-12.60619 c 0.028,-1.1991 0.0917,-3.39937 0.14149,-4.8895 0.0498,-1.49014 0.10668,-3.47134 0.12642,-4.40267 l 0.0359,-1.69333 -0.38515,1.18533 c -0.21184,0.65193 -0.65185,2.01843 -0.97781,3.03666 -0.32597,1.01823 -1.16161,3.4307 -1.857,5.36104 -0.69539,1.93034 -1.26435,3.52611 -1.26435,3.54617 0,0.02 0.92915,0.0365 2.06478,0.0365 h 2.06477 z m 6.59889,12.48833 c 0.0248,-0.10478 1.23265,-6.41985 2.68412,-14.0335 1.45146,-7.61365 2.66503,-13.87068 2.69683,-13.90451 0.15571,-0.16569 2.78349,-0.41972 4.79627,-0.46367 2.97148,-0.0649 4.16762,0.11827 5.71338,0.87486 0.66297,0.32449 0.92393,0.51437 1.4848,1.08034 0.55077,0.55578 0.75564,0.83994 1.07495,1.49098 0.49096,1.00102 0.64686,1.58536 0.71381,2.67555 0.0903,1.46966 -0.21815,3.16891 -0.81344,4.48179 -0.85776,1.89176 -2.56796,3.62882 -4.28654,4.35387 -0.2997,0.12645 -0.56526,0.25025 -0.59013,0.27512 -0.0249,0.0249 0.14661,0.16832 0.38108,0.31877 0.52218,0.33508 0.85569,0.7455 1.19494,1.47045 0.47942,1.02449 0.57629,1.77911 0.71364,5.55912 0.11422,3.14305 0.22075,4.86571 0.35215,5.69383 l 0.0504,0.3175 h -2.66691 -2.66692 l -0.0591,-0.83387 c -0.0325,-0.45863 -0.0906,-2.43031 -0.12903,-4.3815 -0.0633,-3.21206 -0.0869,-3.6117 -0.24961,-4.22496 -0.39696,-1.49613 -1.00966,-1.98813 -2.47716,-1.9892 -0.64052,-5.1e-4 -0.65011,0.003 -0.69756,0.23236 -0.0265,0.12806 -0.48672,2.61409 -1.02281,5.5245 -0.53608,2.91042 -0.99443,5.37739 -1.01856,5.48217 l -0.0439,0.1905 h -2.5899 -2.5899 z m 9.75227,-15.39021 c 2.17674,-0.30617 3.81371,-2.51069 3.99603,-5.38149 0.11293,-1.77825 -0.57654,-3.10271 -1.78658,-3.43201 -0.40899,-0.1113 -1.86686,-0.10855 -2.069,0.004 -0.10926,0.0608 -0.32146,1.04323 -0.9555,4.42373 -0.44826,2.39007 -0.79845,4.37416 -0.77817,4.40909 0.0514,0.0885 0.88542,0.0763 1.59322,-0.0232 z m -91.594007,3.25919 -2.936604,-5.46646 0.260228,-1.45651 c 0.301317,-1.68649 0.529494,-2.42488 1.07677,-3.48451 1.396087,-2.70308 4.044856,-4.7285 6.969201,-5.3291 0.773751,-0.15891 15.059238,-0.67735 17.178747,-0.62344 1.164853,0.0296 1.390658,0.0601 2.009298,0.27117 0.383331,0.13078 0.748385,0.2806 0.811234,0.33291 0.09325,0.0776 -0.620604,2.01507 -3.880376,10.53165 -2.197054,5.74008 -4.011483,10.45336 -4.032064,10.47394 -0.02058,0.0206 -1.653932,-3.35114 -3.62967,-7.49271 -1.975738,-4.14157 -3.617108,-7.50229 -3.647491,-7.46827 -0.03038,0.034 -1.642454,3.43298 -3.582383,7.55325 -1.939929,4.12027 -3.5571,7.52135 -3.593714,7.55797 -0.03661,0.0366 -1.388043,-2.39334 -3.003176,-5.39989 z"
       style="fill:#000000;stroke-width:0.08466666" />
  </g>
</svg>
